<svg xmlns="http://www.w3.org/2000/svg" viewBox="0 0 1200 400">
  <defs>
    <linearGradient id="bgGradient" x1="0%" y1="0%" x2="100%" y2="100%">
      <stop offset="0%" style="stop-color:#4A6CF7;stop-opacity:0.1" />
      <stop offset="100%" style="stop-color:#F7C948;stop-opacity:0.15" />
    </linearGradient>
    <linearGradient id="shopGradient" x1="0%" y1="0%" x2="100%" y2="100%">
      <stop offset="0%" style="stop-color:#4A6CF7" />
      <stop offset="100%" style="stop-color:#6B5FFF" />
    </linearGradient>
  </defs>
  
  <!-- Background -->
  <rect width="1200" height="400" fill="url(#bgGradient)"/>
  
  <!-- Shopping bag -->
  <ellipse cx="250" cy="280" rx="120" ry="40" fill="#4A6CF7" opacity="0.1"/>
  <path d="M 200 180 L 200 100 Q 200 70 230 70 L 270 70 Q 300 70 300 100 L 300 180 Z" fill="url(#shopGradient)" stroke="#fff" stroke-width="3"/>
  <path d="M 150 180 L 350 180 L 320 300 Q 320 320 300 320 L 200 320 Q 180 320 180 300 Z" fill="#4A6CF7" stroke="#fff" stroke-width="3" opacity="0.9"/>
  <circle cx="220" cy="200" r="8" fill="#fff"/>
  <circle cx="280" cy="200" r="8" fill="#fff"/>
  
  <!-- Shopping boxes/packages on right -->
  <rect x="800" y="150" width="140" height="140" fill="#F7C948" stroke="#fff" stroke-width="3" rx="10"/>
  <circle cx="870" cy="220" r="35" fill="#fff" opacity="0.6"/>
  
  <rect x="920" y="220" width="100" height="100" fill="#16a34a" stroke="#fff" stroke-width="2" rx="8"/>
  <text x="970" y="275" font-size="40" fill="#fff" text-anchor="middle" font-weight="bold">✓</text>
  
  <!-- Decorative elements -->
  <circle cx="450" cy="100" r="30" fill="#4A6CF7" opacity="0.2"/>
  <circle cx="600" cy="350" r="40" fill="#F7C948" opacity="0.15"/>
  <circle cx="1000" cy="100" r="25" fill="#16a34a" opacity="0.2"/>
  
  <!-- Text overlay -->
  <text x="600" y="50" font-size="48" font-weight="700" fill="#4A6CF7" text-anchor="middle" font-family="Poppins">Where Shopping Meets Convenience</text>
  <text x="600" y="100" font-size="24" fill="#6b7280" text-anchor="middle" font-family="Poppins">Explore thousands of products at unbeatable prices</text>
</svg>